<?xml version="1.0" standalone="no"?>
<!DOCTYPE svg PUBLIC "-//W3C//DTD SVG 20010904//EN"
 "http://www.w3.org/TR/2001/REC-SVG-20010904/DTD/svg10.dtd">
<svg version="1.0" xmlns="http://www.w3.org/2000/svg"
 width="300.000000pt" height="300.000000pt" viewBox="0 0 300.000000 300.000000"
 preserveAspectRatio="xMidYMid meet">
<metadata>
Created by potrace 1.14, written by Peter Selinger 2001-2017
</metadata>
<g transform="translate(0.000000,300.000000) scale(0.100000,-0.100000)"
fill="#000000" stroke="none">
<path d="M153 1970 c-64 -15 -126 -71 -143 -128 -8 -25 -10 -139 -8 -347 3
-295 4 -312 25 -350 11 -22 34 -52 50 -66 62 -58 56 -58 479 -58 367 0 391 1
428 20 22 10 51 29 64 42 31 28 72 113 72 149 l0 27 -405 1 c-268 0 -413 4
-429 11 -13 6 -32 27 -43 48 -18 32 -20 55 -20 211 0 196 6 222 60 245 24 10
107 13 346 13 l313 0 30 33 c17 19 57 62 90 97 l60 62 -468 -1 c-258 -1 -484
-4 -501 -9z"/>
<path d="M1139 1978 c-1 -2 -2 -45 -3 -95 l-2 -93 56 0 c30 -1 241 -1 468 -1
387 0 416 1 450 19 45 23 89 84 98 135 l6 37 -536 0 c-295 0 -537 -1 -537 -2z"/>
<path d="M2237 1973 c-2 -5 -3 -36 -3 -70 1 -60 0 -63 -23 -63 -40 0 -108 -47
-135 -93 -24 -41 -41 -106 -28 -108 4 0 47 -2 97 -2 l90 -2 0 -230 c1 -247 5
-264 59 -323 47 -53 64 -56 311 -57 131 -1 243 2 260 8 65 22 120 87 131 156
l7 41 -259 0 c-284 1 -284 1 -307 61 -10 29 -15 194 -8 324 1 20 7 21 214 22
235 0 249 3 303 65 31 36 60 108 52 130 -4 10 -62 13 -287 12 -251 -1 -281 1
-282 15 -1 9 -1 40 -2 69 l-1 52 -92 0 c-51 0 -95 -3 -97 -7z"/>
<path d="M562 1612 c-7 -2 -34 -27 -60 -55 -26 -28 -64 -68 -84 -89 -21 -21
-38 -40 -38 -43 0 -3 125 -5 278 -5 l277 0 88 95 c48 51 84 96 80 98 -11 6
-524 5 -541 -1z"/>
<path d="M1136 1611 c-8 -16 2 -449 12 -472 16 -40 63 -91 99 -105 26 -11 127
-14 498 -14 l465 0 0 299 0 298 -357 -1 -358 -1 3 -33 c4 -59 58 -133 110
-153 13 -5 113 -9 223 -9 l199 0 0 -100 0 -100 -328 0 c-362 0 -361 0 -380 63
-6 17 -10 84 -10 147 0 63 -1 131 -1 152 l-1 36 -85 0 c-47 -1 -87 -4 -89 -7z"/>
</g>
</svg>
